<mxfile host="app.diagrams.net" modified="2023-08-23T07:15:18.251Z" agent="Mozilla/5.0 (Macintosh; Intel Mac OS X 10_15_7) AppleWebKit/537.36 (KHTML, like Gecko) Chrome/116.0.0.0 Safari/537.36" etag="5_MX2GDDDyiZ2ILWC7uH" version="21.6.9" type="device">
  <diagram id="C5RBs43oDa-KdzZeNtuy" name="Page-1">
    <mxGraphModel dx="1434" dy="822" grid="1" gridSize="10" guides="1" tooltips="1" connect="1" arrows="1" fold="1" page="1" pageScale="1" pageWidth="827" pageHeight="1169" math="0" shadow="0">
      <root>
        <mxCell id="WIyWlLk6GJQsqaUBKTNV-0" />
        <mxCell id="WIyWlLk6GJQsqaUBKTNV-1" parent="WIyWlLk6GJQsqaUBKTNV-0" />
        <mxCell id="WIyWlLk6GJQsqaUBKTNV-2" value="" style="rounded=0;html=1;jettySize=auto;orthogonalLoop=1;fontSize=11;endArrow=block;endFill=0;endSize=8;strokeWidth=1;shadow=0;labelBackgroundColor=none;edgeStyle=orthogonalEdgeStyle;" parent="WIyWlLk6GJQsqaUBKTNV-1" source="WIyWlLk6GJQsqaUBKTNV-3" target="WIyWlLk6GJQsqaUBKTNV-6" edge="1">
          <mxGeometry relative="1" as="geometry" />
        </mxCell>
        <mxCell id="WIyWlLk6GJQsqaUBKTNV-3" value="Start" style="rounded=1;whiteSpace=wrap;html=1;fontSize=12;glass=0;strokeWidth=1;shadow=0;" parent="WIyWlLk6GJQsqaUBKTNV-1" vertex="1">
          <mxGeometry x="445" y="19" width="120" height="40" as="geometry" />
        </mxCell>
        <mxCell id="7e7jgnYnhg2opkyesf1d-4" value="" style="edgeStyle=orthogonalEdgeStyle;rounded=0;orthogonalLoop=1;jettySize=auto;html=1;" parent="WIyWlLk6GJQsqaUBKTNV-1" source="WIyWlLk6GJQsqaUBKTNV-6" target="7e7jgnYnhg2opkyesf1d-3" edge="1">
          <mxGeometry relative="1" as="geometry" />
        </mxCell>
        <mxCell id="WIyWlLk6GJQsqaUBKTNV-6" value="1: List of file&lt;br&gt;2: Business menu&lt;br&gt;3: Close the program" style="rhombus;whiteSpace=wrap;html=1;shadow=0;fontFamily=Helvetica;fontSize=12;align=center;strokeWidth=1;spacing=6;spacingTop=-4;" parent="WIyWlLk6GJQsqaUBKTNV-1" vertex="1">
          <mxGeometry x="400" y="89" width="210" height="110" as="geometry" />
        </mxCell>
        <mxCell id="WIyWlLk6GJQsqaUBKTNV-11" value="End" style="rounded=1;whiteSpace=wrap;html=1;fontSize=12;glass=0;strokeWidth=1;shadow=0;" parent="WIyWlLk6GJQsqaUBKTNV-1" vertex="1">
          <mxGeometry x="445" y="1100" width="120" height="40" as="geometry" />
        </mxCell>
        <mxCell id="7e7jgnYnhg2opkyesf1d-7" value="" style="edgeStyle=orthogonalEdgeStyle;rounded=0;orthogonalLoop=1;jettySize=auto;html=1;entryX=1;entryY=0.5;entryDx=0;entryDy=0;" parent="WIyWlLk6GJQsqaUBKTNV-1" source="7e7jgnYnhg2opkyesf1d-3" target="7e7jgnYnhg2opkyesf1d-6" edge="1">
          <mxGeometry relative="1" as="geometry">
            <Array as="points">
              <mxPoint x="390" y="329" />
              <mxPoint x="390" y="429" />
            </Array>
          </mxGeometry>
        </mxCell>
        <mxCell id="7e7jgnYnhg2opkyesf1d-14" value="1: List files" style="edgeLabel;html=1;align=center;verticalAlign=middle;resizable=0;points=[];" parent="7e7jgnYnhg2opkyesf1d-7" vertex="1" connectable="0">
          <mxGeometry x="0.1282" y="-1" relative="1" as="geometry">
            <mxPoint y="-39" as="offset" />
          </mxGeometry>
        </mxCell>
        <mxCell id="7e7jgnYnhg2opkyesf1d-10" style="edgeStyle=orthogonalEdgeStyle;rounded=0;orthogonalLoop=1;jettySize=auto;html=1;exitX=1;exitY=0.5;exitDx=0;exitDy=0;entryX=1;entryY=0.5;entryDx=0;entryDy=0;" parent="WIyWlLk6GJQsqaUBKTNV-1" source="7e7jgnYnhg2opkyesf1d-3" target="WIyWlLk6GJQsqaUBKTNV-6" edge="1">
          <mxGeometry relative="1" as="geometry">
            <Array as="points">
              <mxPoint x="630" y="329" />
              <mxPoint x="630" y="144" />
            </Array>
          </mxGeometry>
        </mxCell>
        <mxCell id="7e7jgnYnhg2opkyesf1d-11" value="Default" style="edgeLabel;html=1;align=center;verticalAlign=middle;resizable=0;points=[];" parent="7e7jgnYnhg2opkyesf1d-10" vertex="1" connectable="0">
          <mxGeometry x="0.3913" relative="1" as="geometry">
            <mxPoint y="25" as="offset" />
          </mxGeometry>
        </mxCell>
        <mxCell id="7e7jgnYnhg2opkyesf1d-12" style="edgeStyle=orthogonalEdgeStyle;rounded=0;orthogonalLoop=1;jettySize=auto;html=1;exitX=1;exitY=1;exitDx=0;exitDy=0;entryX=1;entryY=0.5;entryDx=0;entryDy=0;" parent="WIyWlLk6GJQsqaUBKTNV-1" source="7e7jgnYnhg2opkyesf1d-3" target="WIyWlLk6GJQsqaUBKTNV-11" edge="1">
          <mxGeometry relative="1" as="geometry">
            <mxPoint x="780" y="349" as="targetPoint" />
            <Array as="points">
              <mxPoint x="790" y="350" />
              <mxPoint x="790" y="1120" />
            </Array>
          </mxGeometry>
        </mxCell>
        <mxCell id="7e7jgnYnhg2opkyesf1d-13" value="3: Close" style="edgeLabel;html=1;align=center;verticalAlign=middle;resizable=0;points=[];" parent="7e7jgnYnhg2opkyesf1d-12" vertex="1" connectable="0">
          <mxGeometry x="-0.3164" y="3" relative="1" as="geometry">
            <mxPoint x="-133" y="-181" as="offset" />
          </mxGeometry>
        </mxCell>
        <mxCell id="7e7jgnYnhg2opkyesf1d-17" value="" style="edgeStyle=orthogonalEdgeStyle;rounded=0;orthogonalLoop=1;jettySize=auto;html=1;" parent="WIyWlLk6GJQsqaUBKTNV-1" source="7e7jgnYnhg2opkyesf1d-3" target="7e7jgnYnhg2opkyesf1d-16" edge="1">
          <mxGeometry relative="1" as="geometry" />
        </mxCell>
        <mxCell id="7e7jgnYnhg2opkyesf1d-20" value="2: Business menu" style="edgeLabel;html=1;align=center;verticalAlign=middle;resizable=0;points=[];" parent="7e7jgnYnhg2opkyesf1d-17" vertex="1" connectable="0">
          <mxGeometry x="-0.1667" y="1" relative="1" as="geometry">
            <mxPoint as="offset" />
          </mxGeometry>
        </mxCell>
        <mxCell id="7e7jgnYnhg2opkyesf1d-3" value="Reading from keabord" style="shape=parallelogram;perimeter=parallelogramPerimeter;whiteSpace=wrap;html=1;fixedSize=1;" parent="WIyWlLk6GJQsqaUBKTNV-1" vertex="1">
          <mxGeometry x="445" y="299" width="120" height="60" as="geometry" />
        </mxCell>
        <mxCell id="IB3Vb5sHtZYlA_GzgGeC-3" style="edgeStyle=orthogonalEdgeStyle;rounded=0;orthogonalLoop=1;jettySize=auto;html=1;exitX=0.5;exitY=0;exitDx=0;exitDy=0;entryX=0.5;entryY=1;entryDx=0;entryDy=0;" parent="WIyWlLk6GJQsqaUBKTNV-1" source="7e7jgnYnhg2opkyesf1d-6" target="IB3Vb5sHtZYlA_GzgGeC-1" edge="1">
          <mxGeometry relative="1" as="geometry" />
        </mxCell>
        <mxCell id="7e7jgnYnhg2opkyesf1d-6" value="Print list" style="shape=label;whiteSpace=wrap;html=1;backgroundOutline=1;rounded=0;" parent="WIyWlLk6GJQsqaUBKTNV-1" vertex="1">
          <mxGeometry x="160" y="399" width="120" height="60" as="geometry" />
        </mxCell>
        <mxCell id="7e7jgnYnhg2opkyesf1d-18" style="edgeStyle=orthogonalEdgeStyle;rounded=0;orthogonalLoop=1;jettySize=auto;html=1;entryX=0.314;entryY=0.191;entryDx=0;entryDy=0;exitX=0;exitY=0.5;exitDx=0;exitDy=0;entryPerimeter=0;" parent="WIyWlLk6GJQsqaUBKTNV-1" source="7e7jgnYnhg2opkyesf1d-21" target="WIyWlLk6GJQsqaUBKTNV-6" edge="1">
          <mxGeometry relative="1" as="geometry">
            <Array as="points">
              <mxPoint x="20" y="589" />
              <mxPoint x="20" y="109" />
            </Array>
          </mxGeometry>
        </mxCell>
        <mxCell id="7e7jgnYnhg2opkyesf1d-19" value="m: Prev menu" style="edgeLabel;html=1;align=center;verticalAlign=middle;resizable=0;points=[];" parent="7e7jgnYnhg2opkyesf1d-18" vertex="1" connectable="0">
          <mxGeometry x="-0.5847" y="-1" relative="1" as="geometry">
            <mxPoint x="14" as="offset" />
          </mxGeometry>
        </mxCell>
        <mxCell id="7e7jgnYnhg2opkyesf1d-22" value="" style="edgeStyle=orthogonalEdgeStyle;rounded=0;orthogonalLoop=1;jettySize=auto;html=1;" parent="WIyWlLk6GJQsqaUBKTNV-1" source="7e7jgnYnhg2opkyesf1d-16" target="7e7jgnYnhg2opkyesf1d-21" edge="1">
          <mxGeometry relative="1" as="geometry" />
        </mxCell>
        <mxCell id="7e7jgnYnhg2opkyesf1d-16" value="a: Add file&lt;br&gt;d: Delete file&lt;br&gt;s: Search file&lt;br&gt;m: Prev. menu" style="rhombus;whiteSpace=wrap;html=1;" parent="WIyWlLk6GJQsqaUBKTNV-1" vertex="1">
          <mxGeometry x="407.5" y="419" width="195" height="120" as="geometry" />
        </mxCell>
        <mxCell id="7e7jgnYnhg2opkyesf1d-25" value="" style="edgeStyle=orthogonalEdgeStyle;rounded=0;orthogonalLoop=1;jettySize=auto;html=1;entryX=0.453;entryY=-0.025;entryDx=0;entryDy=0;entryPerimeter=0;" parent="WIyWlLk6GJQsqaUBKTNV-1" target="7e7jgnYnhg2opkyesf1d-24" edge="1">
          <mxGeometry relative="1" as="geometry">
            <mxPoint x="440" y="619" as="sourcePoint" />
            <Array as="points">
              <mxPoint x="260" y="619" />
              <mxPoint x="260" y="678" />
            </Array>
          </mxGeometry>
        </mxCell>
        <mxCell id="7e7jgnYnhg2opkyesf1d-26" value="a: Add" style="edgeLabel;html=1;align=center;verticalAlign=middle;resizable=0;points=[];" parent="7e7jgnYnhg2opkyesf1d-25" vertex="1" connectable="0">
          <mxGeometry x="-0.3397" y="1" relative="1" as="geometry">
            <mxPoint x="-18" y="-1" as="offset" />
          </mxGeometry>
        </mxCell>
        <mxCell id="7e7jgnYnhg2opkyesf1d-27" style="edgeStyle=orthogonalEdgeStyle;rounded=0;orthogonalLoop=1;jettySize=auto;html=1;exitX=0.165;exitY=0.001;exitDx=0;exitDy=0;entryX=0;entryY=0.5;entryDx=0;entryDy=0;exitPerimeter=0;" parent="WIyWlLk6GJQsqaUBKTNV-1" source="7e7jgnYnhg2opkyesf1d-21" target="7e7jgnYnhg2opkyesf1d-16" edge="1">
          <mxGeometry relative="1" as="geometry">
            <Array as="points">
              <mxPoint x="330" y="559" />
              <mxPoint x="330" y="479" />
            </Array>
          </mxGeometry>
        </mxCell>
        <mxCell id="7e7jgnYnhg2opkyesf1d-28" value="Default" style="edgeLabel;html=1;align=center;verticalAlign=middle;resizable=0;points=[];" parent="7e7jgnYnhg2opkyesf1d-27" vertex="1" connectable="0">
          <mxGeometry x="0.1132" y="1" relative="1" as="geometry">
            <mxPoint as="offset" />
          </mxGeometry>
        </mxCell>
        <mxCell id="7e7jgnYnhg2opkyesf1d-31" value="" style="edgeStyle=orthogonalEdgeStyle;rounded=0;orthogonalLoop=1;jettySize=auto;html=1;" parent="WIyWlLk6GJQsqaUBKTNV-1" source="7e7jgnYnhg2opkyesf1d-21" target="7e7jgnYnhg2opkyesf1d-30" edge="1">
          <mxGeometry relative="1" as="geometry" />
        </mxCell>
        <mxCell id="7e7jgnYnhg2opkyesf1d-32" value="d: Delete" style="edgeLabel;html=1;align=center;verticalAlign=middle;resizable=0;points=[];" parent="7e7jgnYnhg2opkyesf1d-31" vertex="1" connectable="0">
          <mxGeometry x="0.0372" y="3" relative="1" as="geometry">
            <mxPoint y="-2" as="offset" />
          </mxGeometry>
        </mxCell>
        <mxCell id="7e7jgnYnhg2opkyesf1d-36" value="" style="edgeStyle=orthogonalEdgeStyle;rounded=0;orthogonalLoop=1;jettySize=auto;html=1;" parent="WIyWlLk6GJQsqaUBKTNV-1" source="7e7jgnYnhg2opkyesf1d-21" target="7e7jgnYnhg2opkyesf1d-35" edge="1">
          <mxGeometry relative="1" as="geometry" />
        </mxCell>
        <mxCell id="7e7jgnYnhg2opkyesf1d-37" value="s: Search" style="edgeLabel;html=1;align=center;verticalAlign=middle;resizable=0;points=[];" parent="7e7jgnYnhg2opkyesf1d-36" vertex="1" connectable="0">
          <mxGeometry x="-0.237" y="1" relative="1" as="geometry">
            <mxPoint x="-17" y="1" as="offset" />
          </mxGeometry>
        </mxCell>
        <mxCell id="7e7jgnYnhg2opkyesf1d-21" value="Reading from keabord" style="shape=parallelogram;perimeter=parallelogramPerimeter;whiteSpace=wrap;html=1;fixedSize=1;" parent="WIyWlLk6GJQsqaUBKTNV-1" vertex="1">
          <mxGeometry x="445" y="559" width="120" height="60" as="geometry" />
        </mxCell>
        <mxCell id="IB3Vb5sHtZYlA_GzgGeC-17" style="edgeStyle=orthogonalEdgeStyle;rounded=0;orthogonalLoop=1;jettySize=auto;html=1;exitX=0.5;exitY=1;exitDx=0;exitDy=0;" parent="WIyWlLk6GJQsqaUBKTNV-1" source="7e7jgnYnhg2opkyesf1d-24" edge="1">
          <mxGeometry relative="1" as="geometry">
            <mxPoint x="440" y="1070" as="targetPoint" />
            <Array as="points">
              <mxPoint x="260" y="1070" />
            </Array>
          </mxGeometry>
        </mxCell>
        <mxCell id="7e7jgnYnhg2opkyesf1d-24" value="Add to list" style="whiteSpace=wrap;html=1;" parent="WIyWlLk6GJQsqaUBKTNV-1" vertex="1">
          <mxGeometry x="200" y="679" width="120" height="60" as="geometry" />
        </mxCell>
        <mxCell id="IB3Vb5sHtZYlA_GzgGeC-18" style="edgeStyle=orthogonalEdgeStyle;rounded=0;orthogonalLoop=1;jettySize=auto;html=1;exitX=0.5;exitY=1;exitDx=0;exitDy=0;" parent="WIyWlLk6GJQsqaUBKTNV-1" source="7e7jgnYnhg2opkyesf1d-30" edge="1">
          <mxGeometry relative="1" as="geometry">
            <mxPoint x="640" y="1070" as="targetPoint" />
            <Array as="points">
              <mxPoint x="435" y="1070" />
            </Array>
          </mxGeometry>
        </mxCell>
        <mxCell id="7e7jgnYnhg2opkyesf1d-30" value="Delete from list" style="whiteSpace=wrap;html=1;" parent="WIyWlLk6GJQsqaUBKTNV-1" vertex="1">
          <mxGeometry x="375" y="679" width="120" height="60" as="geometry" />
        </mxCell>
        <mxCell id="7e7jgnYnhg2opkyesf1d-41" value="" style="edgeStyle=orthogonalEdgeStyle;rounded=0;orthogonalLoop=1;jettySize=auto;html=1;" parent="WIyWlLk6GJQsqaUBKTNV-1" source="7e7jgnYnhg2opkyesf1d-35" target="7e7jgnYnhg2opkyesf1d-40" edge="1">
          <mxGeometry relative="1" as="geometry" />
        </mxCell>
        <mxCell id="7e7jgnYnhg2opkyesf1d-35" value="do - while loop" style="whiteSpace=wrap;html=1;shape=loopLimit;" parent="WIyWlLk6GJQsqaUBKTNV-1" vertex="1">
          <mxGeometry x="575" y="679" width="120" height="55" as="geometry" />
        </mxCell>
        <mxCell id="7e7jgnYnhg2opkyesf1d-42" style="edgeStyle=orthogonalEdgeStyle;rounded=0;orthogonalLoop=1;jettySize=auto;html=1;exitX=0;exitY=0.5;exitDx=0;exitDy=0;entryX=0;entryY=0.5;entryDx=0;entryDy=0;" parent="WIyWlLk6GJQsqaUBKTNV-1" source="7e7jgnYnhg2opkyesf1d-40" target="7e7jgnYnhg2opkyesf1d-35" edge="1">
          <mxGeometry relative="1" as="geometry" />
        </mxCell>
        <mxCell id="7e7jgnYnhg2opkyesf1d-43" value="not match" style="edgeLabel;html=1;align=center;verticalAlign=middle;resizable=0;points=[];" parent="7e7jgnYnhg2opkyesf1d-42" vertex="1" connectable="0">
          <mxGeometry x="-0.1643" y="-1" relative="1" as="geometry">
            <mxPoint as="offset" />
          </mxGeometry>
        </mxCell>
        <mxCell id="7e7jgnYnhg2opkyesf1d-45" value="" style="edgeStyle=orthogonalEdgeStyle;rounded=0;orthogonalLoop=1;jettySize=auto;html=1;" parent="WIyWlLk6GJQsqaUBKTNV-1" source="7e7jgnYnhg2opkyesf1d-40" target="7e7jgnYnhg2opkyesf1d-44" edge="1">
          <mxGeometry relative="1" as="geometry" />
        </mxCell>
        <mxCell id="7e7jgnYnhg2opkyesf1d-46" value="match" style="edgeLabel;html=1;align=center;verticalAlign=middle;resizable=0;points=[];" parent="7e7jgnYnhg2opkyesf1d-45" vertex="1" connectable="0">
          <mxGeometry x="-0.2866" relative="1" as="geometry">
            <mxPoint as="offset" />
          </mxGeometry>
        </mxCell>
        <mxCell id="7e7jgnYnhg2opkyesf1d-40" value="Compare iterator&lt;br&gt;with search text" style="rhombus;whiteSpace=wrap;html=1;" parent="WIyWlLk6GJQsqaUBKTNV-1" vertex="1">
          <mxGeometry x="552.5" y="764" width="165" height="92.5" as="geometry" />
        </mxCell>
        <mxCell id="7e7jgnYnhg2opkyesf1d-48" value="" style="edgeStyle=orthogonalEdgeStyle;rounded=0;orthogonalLoop=1;jettySize=auto;html=1;" parent="WIyWlLk6GJQsqaUBKTNV-1" source="7e7jgnYnhg2opkyesf1d-44" target="7e7jgnYnhg2opkyesf1d-47" edge="1">
          <mxGeometry relative="1" as="geometry" />
        </mxCell>
        <mxCell id="7e7jgnYnhg2opkyesf1d-44" value="add to new temp list" style="whiteSpace=wrap;html=1;" parent="WIyWlLk6GJQsqaUBKTNV-1" vertex="1">
          <mxGeometry x="575" y="894" width="120" height="60" as="geometry" />
        </mxCell>
        <mxCell id="7e7jgnYnhg2opkyesf1d-49" style="edgeStyle=orthogonalEdgeStyle;rounded=0;orthogonalLoop=1;jettySize=auto;html=1;exitX=0.5;exitY=1;exitDx=0;exitDy=0;entryX=1;entryY=0.5;entryDx=0;entryDy=0;" parent="WIyWlLk6GJQsqaUBKTNV-1" source="7e7jgnYnhg2opkyesf1d-47" target="7e7jgnYnhg2opkyesf1d-16" edge="1">
          <mxGeometry relative="1" as="geometry">
            <mxPoint x="610" y="479" as="targetPoint" />
            <Array as="points">
              <mxPoint x="635" y="1070" />
              <mxPoint x="740" y="1070" />
              <mxPoint x="740" y="479" />
            </Array>
          </mxGeometry>
        </mxCell>
        <mxCell id="7e7jgnYnhg2opkyesf1d-47" value="Print temp list" style="whiteSpace=wrap;html=1;" parent="WIyWlLk6GJQsqaUBKTNV-1" vertex="1">
          <mxGeometry x="575" y="994" width="120" height="60" as="geometry" />
        </mxCell>
        <mxCell id="IB3Vb5sHtZYlA_GzgGeC-6" value="" style="edgeStyle=orthogonalEdgeStyle;rounded=0;orthogonalLoop=1;jettySize=auto;html=1;" parent="WIyWlLk6GJQsqaUBKTNV-1" source="IB3Vb5sHtZYlA_GzgGeC-1" target="IB3Vb5sHtZYlA_GzgGeC-5" edge="1">
          <mxGeometry relative="1" as="geometry">
            <Array as="points">
              <mxPoint x="320" y="319" />
            </Array>
          </mxGeometry>
        </mxCell>
        <mxCell id="IB3Vb5sHtZYlA_GzgGeC-7" value="no" style="edgeLabel;html=1;align=center;verticalAlign=middle;resizable=0;points=[];" parent="IB3Vb5sHtZYlA_GzgGeC-6" vertex="1" connectable="0">
          <mxGeometry x="-0.2889" relative="1" as="geometry">
            <mxPoint x="-13" as="offset" />
          </mxGeometry>
        </mxCell>
        <mxCell id="IB3Vb5sHtZYlA_GzgGeC-13" style="edgeStyle=orthogonalEdgeStyle;rounded=0;orthogonalLoop=1;jettySize=auto;html=1;exitX=0;exitY=0.5;exitDx=0;exitDy=0;entryX=0.417;entryY=0.983;entryDx=0;entryDy=0;entryPerimeter=0;" parent="WIyWlLk6GJQsqaUBKTNV-1" source="IB3Vb5sHtZYlA_GzgGeC-1" target="IB3Vb5sHtZYlA_GzgGeC-12" edge="1">
          <mxGeometry relative="1" as="geometry" />
        </mxCell>
        <mxCell id="IB3Vb5sHtZYlA_GzgGeC-16" value="yes" style="edgeLabel;html=1;align=center;verticalAlign=middle;resizable=0;points=[];" parent="IB3Vb5sHtZYlA_GzgGeC-13" vertex="1" connectable="0">
          <mxGeometry x="-0.4047" y="-1" relative="1" as="geometry">
            <mxPoint as="offset" />
          </mxGeometry>
        </mxCell>
        <mxCell id="IB3Vb5sHtZYlA_GzgGeC-1" value="Is empty?" style="rhombus;whiteSpace=wrap;html=1;" parent="WIyWlLk6GJQsqaUBKTNV-1" vertex="1">
          <mxGeometry x="180" y="279" width="80" height="80" as="geometry" />
        </mxCell>
        <mxCell id="IB3Vb5sHtZYlA_GzgGeC-15" style="edgeStyle=orthogonalEdgeStyle;rounded=0;orthogonalLoop=1;jettySize=auto;html=1;entryX=0;entryY=0.5;entryDx=0;entryDy=0;" parent="WIyWlLk6GJQsqaUBKTNV-1" source="IB3Vb5sHtZYlA_GzgGeC-5" target="WIyWlLk6GJQsqaUBKTNV-6" edge="1">
          <mxGeometry relative="1" as="geometry">
            <Array as="points">
              <mxPoint x="320" y="144" />
            </Array>
          </mxGeometry>
        </mxCell>
        <mxCell id="IB3Vb5sHtZYlA_GzgGeC-5" value="Print list" style="whiteSpace=wrap;html=1;" parent="WIyWlLk6GJQsqaUBKTNV-1" vertex="1">
          <mxGeometry x="260" y="199" width="120" height="60" as="geometry" />
        </mxCell>
        <mxCell id="IB3Vb5sHtZYlA_GzgGeC-14" style="edgeStyle=orthogonalEdgeStyle;rounded=0;orthogonalLoop=1;jettySize=auto;html=1;exitX=0.5;exitY=0;exitDx=0;exitDy=0;entryX=0;entryY=0.5;entryDx=0;entryDy=0;" parent="WIyWlLk6GJQsqaUBKTNV-1" source="IB3Vb5sHtZYlA_GzgGeC-12" target="WIyWlLk6GJQsqaUBKTNV-6" edge="1">
          <mxGeometry relative="1" as="geometry" />
        </mxCell>
        <mxCell id="IB3Vb5sHtZYlA_GzgGeC-12" value="Print &quot;Empty&quot;" style="rounded=0;whiteSpace=wrap;html=1;" parent="WIyWlLk6GJQsqaUBKTNV-1" vertex="1">
          <mxGeometry x="60" y="199" width="120" height="60" as="geometry" />
        </mxCell>
      </root>
    </mxGraphModel>
  </diagram>
</mxfile>
